<?xml version="1.0" encoding="utf-8"?>
<!-- Generator: Adobe Illustrator 22.1.0, SVG Export Plug-In . SVG Version: 6.00 Build 0)  -->
<svg version="1.0" id="Layer_1" xmlns="http://www.w3.org/2000/svg" xmlns:xlink="http://www.w3.org/1999/xlink" x="0px" y="0px"
	 viewBox="0 0 126 74.8" style="enable-background:new 0 0 126 74.8;" xml:space="preserve">
<g>
	<g>
		<path style="fill:#FFFFFF;" d="M12.9,69.4c-5.4,0-9.7-4.4-9.7-9.7V15.1c0-5.4,4.4-9.7,9.7-9.7h99.6c5.4,0,9.7,4.4,9.7,9.7v44.5
			c0,5.4-4.4,9.7-9.7,9.7H12.9z"/>
		<path style="fill:#C5203E;" d="M117.1,10.5c-1.2-1.2-2.9-1.9-4.6-1.9H84.7l16,26.7l1.5,0.2l0.9,1.2l0,1.2l1,0.2l0.9,1.3l0,1.1
			l1,0.2c0,0,1,1.1,1,1.2c0-0.1,0,2.5,0,2.5s2.3,2.1,4.3,2.9c1.4,0.5,1.6,2.8,2.4,4c1.1,1.7,2.6,2.4,2.3,3.4c-0.7,2.6-3.4,7-5.9,7.3
			c0,0-6.2,0-9.9,0l0,4.2h12.4c3.6,0,6.5-2.9,6.5-6.5V15.1C119,13.4,118.3,11.8,117.1,10.5"/>
		<path style="fill:#091F3F;" d="M75.2,8.6H12.9c-1.7,0-3.4,0.7-4.6,1.9c-1.2,1.2-1.9,2.9-1.9,4.6v44.5c0,1.7,0.7,3.4,1.9,4.6
			c1.2,1.2,2.9,1.9,4.6,1.9h40.4c-1-1.7-2.2-3.6-2.5-4.2l-4.8,0C46,50,50.1,43.3,55,42c0.7-0.1,0.4-3.4-0.5-4.4c0,0-2.3,0.1-2.8-0.1
			c-0.6-0.2-0.2-0.8-0.2-0.8l2.3-4.9l-0.3-1.3l-8.4,0c-0.1,0,6.9-4.8,6.9-4.8c0.4-12.7,13.4-13.7,21.2-8.4c4.6,3.1,5,9.2,4.6,13.5
			c-0.1,0.2-1.2,0.1-1.2,0.1s-0.8,4.6,1.3,4.6l9.2,0c3.7-0.1,7.3,2.4,7.3,2.4l0.9-3.2L75.2,8.6z M19.9,57c-2.5,0-4.4-2-4.4-4.4
			c0-2.5,2-4.4,4.4-4.5c2.5,0,4.4,2,4.4,4.4C24.3,55,22.3,57,19.9,57"/>
	</g>
	<g>
		<path style="fill:#FFFFFF;" d="M124.4,66.5c0.7,0,1.3,0.5,1.3,1.3c0,0.7-0.6,1.3-1.3,1.3c-0.7,0-1.3-0.6-1.3-1.3
			C123.1,67,123.7,66.5,124.4,66.5 M124.4,69.4c0.9,0,1.6-0.7,1.6-1.6c0-0.9-0.7-1.6-1.6-1.6c-0.9,0-1.6,0.7-1.6,1.6
			C122.8,68.7,123.5,69.4,124.4,69.4 M124.7,67.9c0.3,0,0.5-0.2,0.5-0.5c0-0.4-0.3-0.5-0.7-0.5h-0.8v1.7h0.4v-0.7h0.3l0.4,0.7h0.4
			L124.7,67.9z M124.1,67.6v-0.4h0.4c0.2,0,0.4,0,0.4,0.2c0,0.2-0.1,0.2-0.3,0.2H124.1z"/>
	</g>
</g>
</svg>
